# xmcd CD database file
#
# Track frame offsets:
#	150
#	16343
#	38962
#	54583
#	65829
#	85591
#	103493
#	117208
#	134182
#	145693
#	160643
#	179001
#	193819
#	208921
#
# Disc length: 2999 seconds
#
# Revision: 2
# Processed by: cddbd v1.5.1PL2 Copyright (c) Steve Scherf et al.
# Submitted via: CDex 1.51
#
DISCID=d70bb50e
DTITLE=Fergus Holmes - The Cowboy in me
DYEAR=2005
DGENRE=Country
TTITLE0=Mercury Blues
TTITLE1=Harvest Moon
TTITLE2=I Just want to dance with you
TTITLE3=Helplessly hoping
TTITLE4=My best friend
TTITLE5=Caroline on my mind
TTITLE6=Crying my heart out over you
TTITLE7=Somebody like you
TTITLE8=Country boy
TTITLE9=Handy Man
TTITLE10=Leaving on a jet plane
TTITLE11=Lay lady lay
TTITLE12=The cowboy in me
TTITLE13=I've got you under my skin
EXTD=YEAR: 2005
EXTT0=
EXTT1=
EXTT2=
EXTT3=
EXTT4=
EXTT5=
EXTT6=
EXTT7=
EXTT8=
EXTT9=
EXTT10=
EXTT11=
EXTT12=
EXTT13=
PLAYORDER=
